<svg viewBox="0 0 40 40" fill="none" xmlns="http://www.w3.org/2000/svg">
  <defs>
    <linearGradient id="fg" x1="0%" y1="0%" x2="100%" y2="100%">
      <stop offset="0%" stop-color="#44cce4" />
      <stop offset="100%" stop-color="#acf4f0" />
    </linearGradient>
    <linearGradient id="ag" x1="0%" y1="100%" x2="100%" y2="0%">
      <stop offset="0%" stop-color="#44cce4" />
      <stop offset="100%" stop-color="#2ab8d1" />
    </linearGradient>
  </defs>
  <circle cx="20" cy="20" r="18" stroke="url(#fg)" stroke-width="2" fill="none" opacity="0.3"/>
  <circle cx="20" cy="20" r="16" fill="url(#fg)" opacity="0.15"/>
  <path d="M20 8L10 32H14.5L16.5 27H23.5L25.5 32H30L20 8Z" fill="url(#ag)"/>
  <rect x="15" y="21" width="10" height="2.5" rx="1" fill="white"/>
  <path d="M20 14L17 21H23L20 14Z" fill="white" opacity="0.9"/>
  <circle cx="8" cy="20" r="2" fill="#44cce4"/>
  <circle cx="32" cy="20" r="2" fill="#44cce4"/>
  <circle cx="20" cy="6" r="2" fill="#44cce4"/>
  <line x1="10" y1="20" x2="14" y2="20" stroke="#44cce4" stroke-width="1" opacity="0.6"/>
  <line x1="26" y1="20" x2="30" y2="20" stroke="#44cce4" stroke-width="1" opacity="0.6"/>
  <line x1="20" y1="8" x2="20" y2="10" stroke="#44cce4" stroke-width="1" opacity="0.6"/>
</svg>
